<mxfile host="app.diagrams.net" modified="2023-09-22T19:48:31.842Z" agent="Mozilla/5.0 (Windows NT 10.0; Win64; x64) AppleWebKit/537.36 (KHTML, like Gecko) Chrome/116.0.0.0 Safari/537.36" etag="oaA1FiDQCfc9Kd5CVGG-" version="21.7.5" type="github">
  <diagram name="Página-1" id="ptAYf3jcV3ZSNVXvtiK4">
    <mxGraphModel dx="1434" dy="758" grid="1" gridSize="10" guides="1" tooltips="1" connect="1" arrows="1" fold="1" page="1" pageScale="1" pageWidth="1900" pageHeight="560" math="0" shadow="0">
      <root>
        <mxCell id="0" />
        <mxCell id="1" parent="0" />
        <mxCell id="m2qksDiCkBiZy039ga3g-1" value="&lt;font style=&quot;vertical-align: inherit;&quot;&gt;&lt;font style=&quot;vertical-align: inherit;&quot;&gt;&lt;font style=&quot;vertical-align: inherit;&quot;&gt;&lt;font style=&quot;vertical-align: inherit;&quot;&gt;&lt;font style=&quot;vertical-align: inherit;&quot;&gt;&lt;font style=&quot;vertical-align: inherit;&quot;&gt;&lt;font style=&quot;vertical-align: inherit;&quot;&gt;&lt;font style=&quot;vertical-align: inherit;&quot;&gt;&lt;font style=&quot;vertical-align: inherit;&quot;&gt;&lt;font style=&quot;vertical-align: inherit;&quot;&gt;&lt;font style=&quot;vertical-align: inherit;&quot;&gt;&lt;font style=&quot;vertical-align: inherit;&quot;&gt;Cierre automático formato de concurrencia&lt;/font&gt;&lt;/font&gt;&lt;/font&gt;&lt;/font&gt;&lt;/font&gt;&lt;/font&gt;&lt;/font&gt;&lt;/font&gt;&lt;/font&gt;&lt;/font&gt;&lt;/font&gt;&lt;/font&gt;" style="swimlane;childLayout=stackLayout;resizeParent=1;resizeParentMax=0;horizontal=1;startSize=20;horizontalStack=0;html=1;" vertex="1" parent="1">
          <mxGeometry x="25" y="10" width="1835" height="520" as="geometry" />
        </mxCell>
        <mxCell id="m2qksDiCkBiZy039ga3g-3" value="ZonaSer Prestador" style="swimlane;startSize=20;horizontal=0;html=1;" vertex="1" parent="m2qksDiCkBiZy039ga3g-1">
          <mxGeometry y="20" width="1835" height="200" as="geometry" />
        </mxCell>
        <mxCell id="m2qksDiCkBiZy039ga3g-4" value="" style="points=[[0.145,0.145,0],[0.5,0,0],[0.855,0.145,0],[1,0.5,0],[0.855,0.855,0],[0.5,1,0],[0.145,0.855,0],[0,0.5,0]];shape=mxgraph.bpmn.event;html=1;verticalLabelPosition=bottom;labelBackgroundColor=#ffffff;verticalAlign=top;align=center;perimeter=ellipsePerimeter;outlineConnect=0;aspect=fixed;outline=standard;symbol=general;fillColor=#d1f58f;strokeColor=#74c059;strokeWidth=2;" vertex="1" parent="m2qksDiCkBiZy039ga3g-3">
          <mxGeometry x="30" y="80" width="50" height="50" as="geometry" />
        </mxCell>
        <mxCell id="m2qksDiCkBiZy039ga3g-6" style="edgeStyle=orthogonalEdgeStyle;rounded=0;orthogonalLoop=1;jettySize=auto;html=1;entryX=0;entryY=0.5;entryDx=0;entryDy=0;entryPerimeter=0;" edge="1" parent="m2qksDiCkBiZy039ga3g-3" source="m2qksDiCkBiZy039ga3g-4" target="m2qksDiCkBiZy039ga3g-42">
          <mxGeometry relative="1" as="geometry">
            <mxPoint x="125" y="105" as="targetPoint" />
          </mxGeometry>
        </mxCell>
        <mxCell id="m2qksDiCkBiZy039ga3g-46" style="edgeStyle=orthogonalEdgeStyle;rounded=0;orthogonalLoop=1;jettySize=auto;html=1;" edge="1" parent="m2qksDiCkBiZy039ga3g-3" source="m2qksDiCkBiZy039ga3g-42" target="m2qksDiCkBiZy039ga3g-45">
          <mxGeometry relative="1" as="geometry" />
        </mxCell>
        <mxCell id="m2qksDiCkBiZy039ga3g-42" value="Ingresar al aplicativo ZonaSer Prestador" style="points=[[0.25,0,0],[0.5,0,0],[0.75,0,0],[1,0.25,0],[1,0.5,0],[1,0.75,0],[0.75,1,0],[0.5,1,0],[0.25,1,0],[0,0.75,0],[0,0.5,0],[0,0.25,0]];shape=mxgraph.bpmn.task;whiteSpace=wrap;rectStyle=rounded;size=10;html=1;container=1;expand=0;collapsible=0;taskMarker=user;fillColor=#dae8fc;strokeColor=#6c8ebf;labelBackgroundColor=none;strokeWidth=2;" vertex="1" parent="m2qksDiCkBiZy039ga3g-3">
          <mxGeometry x="115" y="65" width="120" height="80" as="geometry" />
        </mxCell>
        <mxCell id="m2qksDiCkBiZy039ga3g-48" style="edgeStyle=orthogonalEdgeStyle;rounded=0;orthogonalLoop=1;jettySize=auto;html=1;" edge="1" parent="m2qksDiCkBiZy039ga3g-3" source="m2qksDiCkBiZy039ga3g-45" target="m2qksDiCkBiZy039ga3g-47">
          <mxGeometry relative="1" as="geometry" />
        </mxCell>
        <mxCell id="m2qksDiCkBiZy039ga3g-45" value="Ir a módulo de &quot;Consulta General&quot;" style="points=[[0.25,0,0],[0.5,0,0],[0.75,0,0],[1,0.25,0],[1,0.5,0],[1,0.75,0],[0.75,1,0],[0.5,1,0],[0.25,1,0],[0,0.75,0],[0,0.5,0],[0,0.25,0]];shape=mxgraph.bpmn.task;whiteSpace=wrap;rectStyle=rounded;size=10;html=1;container=1;expand=0;collapsible=0;taskMarker=manual;fillColor=#dae8fc;strokeColor=#6c8ebf;labelBackgroundColor=none;strokeWidth=2;" vertex="1" parent="m2qksDiCkBiZy039ga3g-3">
          <mxGeometry x="275" y="65" width="120" height="80" as="geometry" />
        </mxCell>
        <mxCell id="m2qksDiCkBiZy039ga3g-49" style="edgeStyle=orthogonalEdgeStyle;rounded=0;orthogonalLoop=1;jettySize=auto;html=1;" edge="1" parent="m2qksDiCkBiZy039ga3g-3" source="m2qksDiCkBiZy039ga3g-47" target="m2qksDiCkBiZy039ga3g-50">
          <mxGeometry relative="1" as="geometry">
            <mxPoint x="605" y="105" as="targetPoint" />
          </mxGeometry>
        </mxCell>
        <mxCell id="m2qksDiCkBiZy039ga3g-47" value="Buscar la solicitud de servicio A3 de ámbito hospitalario" style="points=[[0.25,0,0],[0.5,0,0],[0.75,0,0],[1,0.25,0],[1,0.5,0],[1,0.75,0],[0.75,1,0],[0.5,1,0],[0.25,1,0],[0,0.75,0],[0,0.5,0],[0,0.25,0]];shape=mxgraph.bpmn.task;whiteSpace=wrap;rectStyle=rounded;size=10;html=1;container=1;expand=0;collapsible=0;taskMarker=manual;fillColor=#dae8fc;strokeColor=#6c8ebf;labelBackgroundColor=none;strokeWidth=2;" vertex="1" parent="m2qksDiCkBiZy039ga3g-3">
          <mxGeometry x="435" y="65" width="120" height="80" as="geometry" />
        </mxCell>
        <mxCell id="m2qksDiCkBiZy039ga3g-52" style="edgeStyle=orthogonalEdgeStyle;rounded=0;orthogonalLoop=1;jettySize=auto;html=1;" edge="1" parent="m2qksDiCkBiZy039ga3g-3" source="m2qksDiCkBiZy039ga3g-50" target="m2qksDiCkBiZy039ga3g-51">
          <mxGeometry relative="1" as="geometry" />
        </mxCell>
        <mxCell id="m2qksDiCkBiZy039ga3g-50" value="Mostrar página de resultados de acuerdo con los parámetros de la búsqueda" style="points=[[0.25,0,0],[0.5,0,0],[0.75,0,0],[1,0.25,0],[1,0.5,0],[1,0.75,0],[0.75,1,0],[0.5,1,0],[0.25,1,0],[0,0.75,0],[0,0.5,0],[0,0.25,0]];shape=mxgraph.bpmn.task;whiteSpace=wrap;rectStyle=rounded;size=10;html=1;container=1;expand=0;collapsible=0;taskMarker=service;fillColor=#dae8fc;strokeColor=#6c8ebf;labelBackgroundColor=none;strokeWidth=2;" vertex="1" parent="m2qksDiCkBiZy039ga3g-3">
          <mxGeometry x="595" y="65" width="120" height="80" as="geometry" />
        </mxCell>
        <mxCell id="m2qksDiCkBiZy039ga3g-54" style="edgeStyle=orthogonalEdgeStyle;rounded=0;orthogonalLoop=1;jettySize=auto;html=1;" edge="1" parent="m2qksDiCkBiZy039ga3g-3" source="m2qksDiCkBiZy039ga3g-51" target="m2qksDiCkBiZy039ga3g-53">
          <mxGeometry relative="1" as="geometry" />
        </mxCell>
        <mxCell id="m2qksDiCkBiZy039ga3g-51" value="Dar clic en en el icono de &quot;Ver solicitud&quot; de la columna &quot;Respuesta Solicitud&quot;" style="points=[[0.25,0,0],[0.5,0,0],[0.75,0,0],[1,0.25,0],[1,0.5,0],[1,0.75,0],[0.75,1,0],[0.5,1,0],[0.25,1,0],[0,0.75,0],[0,0.5,0],[0,0.25,0]];shape=mxgraph.bpmn.task;whiteSpace=wrap;rectStyle=rounded;size=10;html=1;container=1;expand=0;collapsible=0;taskMarker=manual;fillColor=#dae8fc;strokeColor=#6c8ebf;labelBackgroundColor=none;strokeWidth=2;" vertex="1" parent="m2qksDiCkBiZy039ga3g-3">
          <mxGeometry x="755" y="65" width="120" height="80" as="geometry" />
        </mxCell>
        <mxCell id="m2qksDiCkBiZy039ga3g-55" style="edgeStyle=orthogonalEdgeStyle;rounded=0;orthogonalLoop=1;jettySize=auto;html=1;" edge="1" parent="m2qksDiCkBiZy039ga3g-3" source="m2qksDiCkBiZy039ga3g-53" target="m2qksDiCkBiZy039ga3g-56">
          <mxGeometry relative="1" as="geometry">
            <mxPoint x="1115" y="105" as="targetPoint" />
          </mxGeometry>
        </mxCell>
        <mxCell id="m2qksDiCkBiZy039ga3g-53" value="Cargar soporte del egreso hospitalario en la sección &quot;Soporte Prestación Efectiva/Egreso Hospitalario" style="points=[[0.25,0,0],[0.5,0,0],[0.75,0,0],[1,0.25,0],[1,0.5,0],[1,0.75,0],[0.75,1,0],[0.5,1,0],[0.25,1,0],[0,0.75,0],[0,0.5,0],[0,0.25,0]];shape=mxgraph.bpmn.task;whiteSpace=wrap;rectStyle=rounded;size=10;html=1;container=1;expand=0;collapsible=0;taskMarker=manual;fillColor=#dae8fc;strokeColor=#6c8ebf;labelBackgroundColor=none;strokeWidth=2;" vertex="1" parent="m2qksDiCkBiZy039ga3g-3">
          <mxGeometry x="915" y="65" width="155" height="80" as="geometry" />
        </mxCell>
        <mxCell id="m2qksDiCkBiZy039ga3g-58" style="edgeStyle=orthogonalEdgeStyle;rounded=0;orthogonalLoop=1;jettySize=auto;html=1;" edge="1" parent="m2qksDiCkBiZy039ga3g-3" source="m2qksDiCkBiZy039ga3g-56" target="m2qksDiCkBiZy039ga3g-57">
          <mxGeometry relative="1" as="geometry" />
        </mxCell>
        <mxCell id="m2qksDiCkBiZy039ga3g-56" value="Registrar la fecha de egreso del evento hospitalario en la sección &quot;Egreso de afiliado&quot;" style="points=[[0.25,0,0],[0.5,0,0],[0.75,0,0],[1,0.25,0],[1,0.5,0],[1,0.75,0],[0.75,1,0],[0.5,1,0],[0.25,1,0],[0,0.75,0],[0,0.5,0],[0,0.25,0]];shape=mxgraph.bpmn.task;whiteSpace=wrap;rectStyle=rounded;size=10;html=1;container=1;expand=0;collapsible=0;taskMarker=manual;fillColor=#dae8fc;strokeColor=#6c8ebf;labelBackgroundColor=none;strokeWidth=2;" vertex="1" parent="m2qksDiCkBiZy039ga3g-3">
          <mxGeometry x="1115" y="65" width="135" height="80" as="geometry" />
        </mxCell>
        <mxCell id="m2qksDiCkBiZy039ga3g-57" value="Clic en Confirmar&lt;br&gt;fecha de egreso" style="points=[[0.145,0.145,0],[0.5,0,0],[0.855,0.145,0],[1,0.5,0],[0.855,0.855,0],[0.5,1,0],[0.145,0.855,0],[0,0.5,0]];shape=mxgraph.bpmn.event;html=1;verticalLabelPosition=bottom;labelBackgroundColor=#ffffff;verticalAlign=top;align=center;perimeter=ellipsePerimeter;outlineConnect=0;aspect=fixed;outline=throwing;symbol=general;fillColor=none;strokeColor=#5c5e03;strokeWidth=1;" vertex="1" parent="m2qksDiCkBiZy039ga3g-3">
          <mxGeometry x="1295" y="80" width="50" height="50" as="geometry" />
        </mxCell>
        <mxCell id="m2qksDiCkBiZy039ga3g-7" value="Concurrencia" style="swimlane;startSize=20;horizontal=0;html=1;" vertex="1" parent="m2qksDiCkBiZy039ga3g-1">
          <mxGeometry y="220" width="1835" height="300" as="geometry" />
        </mxCell>
        <mxCell id="m2qksDiCkBiZy039ga3g-77" style="edgeStyle=orthogonalEdgeStyle;rounded=0;orthogonalLoop=1;jettySize=auto;html=1;" edge="1" parent="m2qksDiCkBiZy039ga3g-7" source="m2qksDiCkBiZy039ga3g-59" target="m2qksDiCkBiZy039ga3g-75">
          <mxGeometry relative="1" as="geometry" />
        </mxCell>
        <mxCell id="m2qksDiCkBiZy039ga3g-59" value="Cerrar formato de concurrencia asociado al A3" style="points=[[0.25,0,0],[0.5,0,0],[0.75,0,0],[1,0.25,0],[1,0.5,0],[1,0.75,0],[0.75,1,0],[0.5,1,0],[0.25,1,0],[0,0.75,0],[0,0.5,0],[0,0.25,0]];shape=mxgraph.bpmn.task;whiteSpace=wrap;rectStyle=rounded;size=10;html=1;container=1;expand=0;collapsible=0;taskMarker=service;fillColor=#dae8fc;strokeColor=#6c8ebf;labelBackgroundColor=none;strokeWidth=2;" vertex="1" parent="m2qksDiCkBiZy039ga3g-7">
          <mxGeometry x="1505" y="10" width="120" height="80" as="geometry" />
        </mxCell>
        <mxCell id="m2qksDiCkBiZy039ga3g-78" style="edgeStyle=orthogonalEdgeStyle;rounded=0;orthogonalLoop=1;jettySize=auto;html=1;" edge="1" parent="m2qksDiCkBiZy039ga3g-7" source="m2qksDiCkBiZy039ga3g-62" target="m2qksDiCkBiZy039ga3g-75">
          <mxGeometry relative="1" as="geometry" />
        </mxCell>
        <mxCell id="m2qksDiCkBiZy039ga3g-62" value="Cambiar estado del formato a &quot;CERRADO&quot; y resaltar el texto de color azul" style="points=[[0.25,0,0],[0.5,0,0],[0.75,0,0],[1,0.25,0],[1,0.5,0],[1,0.75,0],[0.75,1,0],[0.5,1,0],[0.25,1,0],[0,0.75,0],[0,0.5,0],[0,0.25,0]];shape=mxgraph.bpmn.task;whiteSpace=wrap;rectStyle=rounded;size=10;html=1;container=1;expand=0;collapsible=0;taskMarker=service;fillColor=#dae8fc;strokeColor=#6c8ebf;labelBackgroundColor=none;strokeWidth=2;" vertex="1" parent="m2qksDiCkBiZy039ga3g-7">
          <mxGeometry x="1505" y="110" width="120" height="80" as="geometry" />
        </mxCell>
        <mxCell id="m2qksDiCkBiZy039ga3g-79" style="edgeStyle=orthogonalEdgeStyle;rounded=0;orthogonalLoop=1;jettySize=auto;html=1;" edge="1" parent="m2qksDiCkBiZy039ga3g-7" source="m2qksDiCkBiZy039ga3g-64" target="m2qksDiCkBiZy039ga3g-75">
          <mxGeometry relative="1" as="geometry" />
        </mxCell>
        <mxCell id="m2qksDiCkBiZy039ga3g-64" value="Mostrar el tipo de cierre si fue AUTOMATICO O MANUAL" style="points=[[0.25,0,0],[0.5,0,0],[0.75,0,0],[1,0.25,0],[1,0.5,0],[1,0.75,0],[0.75,1,0],[0.5,1,0],[0.25,1,0],[0,0.75,0],[0,0.5,0],[0,0.25,0]];shape=mxgraph.bpmn.task;whiteSpace=wrap;rectStyle=rounded;size=10;html=1;container=1;expand=0;collapsible=0;taskMarker=service;fillColor=#dae8fc;strokeColor=#6c8ebf;labelBackgroundColor=none;strokeWidth=2;" vertex="1" parent="m2qksDiCkBiZy039ga3g-7">
          <mxGeometry x="1505" y="210" width="120" height="80" as="geometry" />
        </mxCell>
        <mxCell id="m2qksDiCkBiZy039ga3g-65" value="" style="points=[[0.145,0.145,0],[0.5,0,0],[0.855,0.145,0],[1,0.5,0],[0.855,0.855,0],[0.5,1,0],[0.145,0.855,0],[0,0.5,0]];shape=mxgraph.bpmn.event;html=1;verticalLabelPosition=bottom;labelBackgroundColor=#ffffff;verticalAlign=top;align=center;perimeter=ellipsePerimeter;outlineConnect=0;aspect=fixed;outline=end;symbol=terminate;fillColor=#f8cecc;strokeColor=#b85450;" vertex="1" parent="m2qksDiCkBiZy039ga3g-7">
          <mxGeometry x="1765" y="125" width="50" height="50" as="geometry" />
        </mxCell>
        <mxCell id="m2qksDiCkBiZy039ga3g-72" style="edgeStyle=orthogonalEdgeStyle;rounded=0;orthogonalLoop=1;jettySize=auto;html=1;entryX=0;entryY=0.413;entryDx=0;entryDy=0;entryPerimeter=0;" edge="1" parent="m2qksDiCkBiZy039ga3g-7" source="m2qksDiCkBiZy039ga3g-67" target="m2qksDiCkBiZy039ga3g-59">
          <mxGeometry relative="1" as="geometry" />
        </mxCell>
        <mxCell id="m2qksDiCkBiZy039ga3g-73" style="edgeStyle=orthogonalEdgeStyle;rounded=0;orthogonalLoop=1;jettySize=auto;html=1;" edge="1" parent="m2qksDiCkBiZy039ga3g-7" source="m2qksDiCkBiZy039ga3g-67" target="m2qksDiCkBiZy039ga3g-62">
          <mxGeometry relative="1" as="geometry" />
        </mxCell>
        <mxCell id="m2qksDiCkBiZy039ga3g-74" style="edgeStyle=orthogonalEdgeStyle;rounded=0;orthogonalLoop=1;jettySize=auto;html=1;entryX=0;entryY=0.5;entryDx=0;entryDy=0;entryPerimeter=0;" edge="1" parent="m2qksDiCkBiZy039ga3g-7" source="m2qksDiCkBiZy039ga3g-67" target="m2qksDiCkBiZy039ga3g-64">
          <mxGeometry relative="1" as="geometry" />
        </mxCell>
        <mxCell id="m2qksDiCkBiZy039ga3g-67" value="" style="points=[[0.25,0.25,0],[0.5,0,0],[0.75,0.25,0],[1,0.5,0],[0.75,0.75,0],[0.5,1,0],[0.25,0.75,0],[0,0.5,0]];shape=mxgraph.bpmn.gateway2;html=1;verticalLabelPosition=bottom;labelBackgroundColor=#ffffff;verticalAlign=top;align=center;perimeter=rhombusPerimeter;outlineConnect=0;outline=none;symbol=none;gwType=parallel;fillColor=#dbe5a9;strokeColor=#91a210;" vertex="1" parent="m2qksDiCkBiZy039ga3g-7">
          <mxGeometry x="1375" y="125" width="50" height="50" as="geometry" />
        </mxCell>
        <mxCell id="m2qksDiCkBiZy039ga3g-76" style="edgeStyle=orthogonalEdgeStyle;rounded=0;orthogonalLoop=1;jettySize=auto;html=1;" edge="1" parent="m2qksDiCkBiZy039ga3g-7" source="m2qksDiCkBiZy039ga3g-75" target="m2qksDiCkBiZy039ga3g-65">
          <mxGeometry relative="1" as="geometry" />
        </mxCell>
        <mxCell id="m2qksDiCkBiZy039ga3g-75" value="" style="points=[[0.25,0.25,0],[0.5,0,0],[0.75,0.25,0],[1,0.5,0],[0.75,0.75,0],[0.5,1,0],[0.25,0.75,0],[0,0.5,0]];shape=mxgraph.bpmn.gateway2;html=1;verticalLabelPosition=bottom;labelBackgroundColor=#ffffff;verticalAlign=top;align=center;perimeter=rhombusPerimeter;outlineConnect=0;outline=end;symbol=general;fillColor=#dbe5a9;strokeColor=#91a210;" vertex="1" parent="m2qksDiCkBiZy039ga3g-7">
          <mxGeometry x="1685" y="125" width="50" height="50" as="geometry" />
        </mxCell>
        <mxCell id="m2qksDiCkBiZy039ga3g-69" style="edgeStyle=orthogonalEdgeStyle;rounded=0;orthogonalLoop=1;jettySize=auto;html=1;" edge="1" parent="m2qksDiCkBiZy039ga3g-1" source="m2qksDiCkBiZy039ga3g-57" target="m2qksDiCkBiZy039ga3g-67">
          <mxGeometry relative="1" as="geometry" />
        </mxCell>
      </root>
    </mxGraphModel>
  </diagram>
</mxfile>
